<?xml version="1.0" encoding="UTF-8"?>
<svg width="41px" height="38px" viewBox="0 0 41 38" version="1.1" xmlns="http://www.w3.org/2000/svg" xmlns:xlink="http://www.w3.org/1999/xlink">
    <!-- Generator: Sketch 64 (93537) - https://sketch.com -->
    <title>Pi!k app - Logo White</title>
    <desc>Created with Sketch.</desc>
    <g id="Page-1" stroke="none" stroke-width="1" fill="none" fill-rule="evenodd">
        <g id="Pi!k-app---Logo-White" fill="#FFFFFF">
            <g id="Logo-Pi!k-White-Vertical">
                <g id="Group" transform="translate(9.843114, 23.221371)" font-family="Helvetica" font-size="11.4606855" font-weight="normal">
                    <text id="Logo-Pi!k">
                        <tspan x="0.055796875" y="11.0957661">app</tspan>
                    </text>
                </g>
                <g id="_1568341977088" transform="translate(0.544355, 0.770161)">
                    <g id="Group" transform="translate(14.213710, 0.100806)">
                        <rect id="Rectangle" x="0.0362903226" y="6.89717742" width="3.59475806" height="17.422379" rx="1.79737903"></rect>
                        <rect id="Rectangle" x="0.0362903226" y="0.0887096774" width="3.59475806" height="3.64415323" rx="1.79737903"></rect>
                    </g>
                    <g id="Group" transform="translate(20.262097, 0.100806)">
                        <rect id="Logo-Pi!k" x="0" y="0.0887096774" width="3.59475806" height="17.422379" rx="1.79737903"></rect>
                        <rect id="Logo-Pi!k" x="0" y="20.6754032" width="3.59475806" height="3.64415323" rx="1.79737903"></rect>
                    </g>
                    <path d="M1.91633065,24.9033965 C0.716733871,24.8921371 0.105846774,24.3739919 0.0846774194,23.3487903 L0.0846774194,1.95060484 C0.0846774194,0.830645161 0.464717742,0.183467742 1.62197581,0.183467742 L4.7641129,0.183467742 C8.23387097,0.183467742 10.1441532,1.08870968 11.4314516,3.16129032 C13.6824597,6.78629032 13.3729839,11.609879 10.1875,14.5635081 C8.83568548,15.8175403 7.09778226,16.3800403 4.04435484,16.3800403 L3.74899194,16.3800403 L3.74899194,23.3165323 C3.72681452,24.3850806 3.11693548,24.9143145 1.91633065,24.9033965 L1.91633065,24.9033965 Z M3.70866935,12.6491935 C6.17842742,12.6491935 7.97379032,12.1471774 8.69354839,10.6864919 C9.41229839,9.22580645 9.35080645,7.73084677 8.81653226,6.20362903 C8.28125,4.67741935 6.52520161,3.94657258 3.75504032,3.94657258 L3.70866935,12.6491935 Z" id="Shape" fill-rule="nonzero"></path>
                    <path d="M38.8175403,24.5594758 C37.8145161,25.2580645 37.1028226,25.1572581 36.5272177,24.3629032 L31.4969758,17.421371 L30.0372984,18.8659274 L30.0372984,23.6764113 C30.016129,24.5927419 29.3830645,25.0504032 28.140121,25.0504032 C26.8971774,25.0504032 26.2752016,24.5927419 26.2752016,23.6764113 L26.2752016,1.59072581 C26.296371,0.543346774 26.9133065,0.0201612903 28.1239919,0.0201612903 C29.3346774,0.0201612903 29.9395161,0.543346774 29.9395161,1.59072581 L29.9395161,14.1875 L35.546371,8.19959677 C36.2631048,7.43346774 37.0403226,7.45262097 37.8689516,8.24899194 C38.6975806,9.04435484 38.8457661,9.91129032 38.1310484,10.6864919 L34.2127016,14.9344758 L39.3417339,22.2368952 C39.9576613,23.1139113 39.8215726,23.8618952 38.8175403,24.5594758 L38.8175403,24.5594758 Z" id="Logo-Pi!k" fill-rule="nonzero"></path>
                </g>
            </g>
        </g>
    </g>
</svg>